# xmcd CD database file
#
# Track frame offsets:
#	150
#	13020
#	27415
#	39045
#	57000
#	67587
#	79127
#	89332
#	113020
#	126542
#
# Disc length: 1915 seconds
#
# Revision: 0
# Processed by: cddbd v1.5.1PL0 Copyright (c) Steve Scherf et al.
# Submitted via: CDex 1.40Release
#
DISCID=7207790a
DTITLE=Ramblin Hearts  - Heartbreaker
DYEAR=1900
DGENRE=Country
TTITLE0=My True Love Always Had Six Strings
TTITLE1=Lonely Tears
TTITLE2=Cold As You
TTITLE3=The Best I've Ever Had
TTITLE4=Kiss You all Night
TTITLE5=Too Many Cooks
TTITLE6=Ramblin Hearts
TTITLE7=I Think About You 
TTITLE8=Six Days On The Road
TTITLE9=Last Of A Dying Breed
EXTD=ID3G: 2
EXTT0=
EXTT1=
EXTT2=
EXTT3=
EXTT4=
EXTT5=
EXTT6=
EXTT7=
EXTT8=
EXTT9=
PLAYORDER=
